# xmcd CD database file
# Copyright (C) 1995 Ti Kan
#
# Track frame offsets:
#	150
#	11700
#	27300
#	44025
#	53625
#	71250
#	84825
#	104475
#	116475
#	135075
#	144525
#	160575
#	170175
#	184125
#	189225
#	208800
#	226575
#	237525
#	252600
#
# Disc length: 3791 seconds
#
# Revision: 1
# Processed by: cddbd v1.4b41PL1 Copyright (c) Steve Scherf et al.
# Submitted via: NotifyCDPlayer(CDDB) 1.07
#
DISCID=030ecd13
DTITLE=Dry Branch Fire Squad - Tried and True
DYEAR=1900
DGENRE=
TTITLE0=Down South in New Orleans
TTITLE1=Brand New Tennessee Waltz
TTITLE2=Someone Play Dixie for Me
TTITLE3=Going Up on the Mountain
TTITLE4=Auction At the Home Place
TTITLE5=Legend of the Johnson Boys
TTITLE6=Aragon Mill
TTITLE7=Goin' Across the Mountain
TTITLE8=Faded Coat of Blue
TTITLE9=Wild Mountain Honey
TTITLE10=Little Girl and the Dreadful Snake
TTITLE11=Oh! What A Storm
TTITLE12=She's More To Be Pitied
TTITLE13=Cripple Creek
TTITLE14=Golden Ring
TTITLE15=There's Dust in the Bible
TTITLE16=Cowboy Jim
TTITLE17=Walking Back to Richmond
TTITLE18=Golgotha
EXTD=
EXTT0=
EXTT1=
EXTT2=
EXTT3=
EXTT4=
EXTT5=
EXTT6=
EXTT7=
EXTT8=
EXTT9=
EXTT10=
EXTT11=
EXTT12=
EXTT13=
EXTT14=
EXTT15=
EXTT16=
EXTT17=
EXTT18=
PLAYORDER=
